<svg xmlns="http://www.w3.org/2000/svg" width="513" height="513" viewBox="0 0 513 513" version="1.1">
	<path d="M 121.235 72.435 C 96.240 77.180, 76.111 88.459, 57.665 108.054 C 37.352 129.632, 23.779 157.033, 17.817 188.500 C 15.819 199.046, 15.543 203.650, 15.540 226.500 C 15.538 249.066, 15.833 254.140, 17.775 264.915 C 24.044 299.686, 36.489 325.446, 56.961 346.024 C 79.869 369.049, 108.221 380.011, 144.822 379.994 C 190.943 379.973, 220.174 362.409, 234.213 326.284 C 238.730 314.658, 241.934 300.881, 242.625 290.104 C 243.597 274.951, 240.981 269, 233.350 269 C 228.384 269, 226.476 272.290, 225.108 283.212 C 222.892 300.912, 217.951 316.689, 210.833 328.799 C 209 331.918, 204.105 337.864, 199.955 342.014 C 187.034 354.935, 172.978 360.308, 152 360.346 C 128.876 360.387, 111.277 352.087, 97.085 334.445 C 78.148 310.905, 68.734 278.339, 67.328 231.500 C 65.971 186.295, 72.778 146.504, 85.622 124.563 C 92.253 113.234, 103.291 102.110, 112.802 97.171 C 134.220 86.047, 159.437 88.631, 178.794 103.931 C 191.916 114.304, 202.864 132.778, 207.577 152.500 C 210.519 164.813, 211.170 166.500, 212.979 166.500 C 213.673 166.500, 216.457 161.325, 219.165 155 C 226.162 138.656, 238.453 113.648, 246.829 98.712 C 250.773 91.679, 254 85.540, 254 85.069 C 254 82.990, 250.358 83.166, 245.630 85.474 C 232.657 91.805, 224.253 91.199, 196.976 81.965 C 172.365 73.633, 163.838 71.924, 144.500 71.449 C 133.545 71.180, 126.209 71.491, 121.235 72.435 M 272.763 92.263 L 287 106.525 287 162.263 L 287 218 280.710 218 C 268.068 218, 256.201 222.820, 247.472 231.500 C 240.514 238.418, 237.752 243.278, 239.454 245.606 C 240.663 247.259, 241.062 247.169, 245.703 244.190 C 255.014 238.216, 272.106 234.139, 282.088 235.512 L 287 236.188 287 241.594 L 287 247 280.549 247 C 271.817 247, 264.904 248.582, 256.194 252.574 C 249.375 255.698, 248.964 256.064, 250.029 258.055 C 250.867 259.619, 251.749 260.020, 253.336 259.556 C 263.582 256.561, 271.160 255.010, 278.436 254.420 L 287 253.725 287 299.307 L 287 344.889 270.920 358.444 L 254.841 372 308.670 371.973 L 362.500 371.946 359.323 369.223 C 357.575 367.725, 351.163 362.026, 345.073 356.559 L 334 346.617 334 291.430 L 334 236.243 368.250 235.710 C 414.099 234.998, 431.658 232.483, 449.500 224.074 C 474.132 212.465, 488.356 191.830, 490.565 164.500 C 492.764 137.288, 480.652 112.929, 457.087 97.166 C 446.605 90.155, 435.356 85.877, 418.668 82.558 C 398.753 78.597, 385.883 78, 320.341 78 L 258.526 78 272.763 92.263 M 252.552 115.778 C 240.975 136.567, 224.151 169.602, 222.630 174.532 C 222.130 176.154, 222.645 176.805, 225.186 177.764 C 226.936 178.425, 228.470 178.861, 228.595 178.733 C 228.720 178.605, 231.594 172.425, 234.982 165 C 242.070 149.463, 252.617 129.095, 263.456 110.012 C 267.605 102.707, 271 96.577, 271 96.391 C 271 96.204, 269.696 95.377, 268.103 94.553 L 265.206 93.055 252.552 115.778 M 341.250 101.669 L 334 102.088 334 159.594 L 334 217.100 339.750 216.800 L 345.500 216.500 345.759 165.750 L 346.018 115 367.259 115.006 C 391.750 115.013, 405.205 116.619, 413.455 120.522 C 419.333 123.303, 426.979 130.927, 430.812 137.830 L 433.125 141.994 427.586 136.456 C 416.421 125.291, 405.349 122.175, 373.740 121.306 L 351.980 120.708 352.240 168.604 L 352.500 216.500 361.500 216.212 C 383.353 215.512, 399.334 212.416, 411.957 206.435 C 431.288 197.276, 439.426 183.607, 439.302 160.500 C 439.124 127.204, 423.645 109.667, 388.965 103.469 C 380.261 101.914, 354.107 100.927, 341.250 101.669 M 132 103.593 C 122.860 106.021, 115.885 110.112, 108.909 117.137 C 89.759 136.424, 80.811 174.198, 82.324 229.366 C 82.962 252.628, 83.810 261.168, 87.091 277.380 C 91.474 299.035, 100.169 320.138, 110.171 333.391 C 116.086 341.230, 126.012 349.049, 133.788 351.996 C 143.988 355.862, 144.932 353.978, 135.545 348.489 C 128.554 344.400, 118.573 334.953, 113.803 327.910 C 95.732 301.227, 86.342 251.048, 89.906 200.208 C 92.589 161.939, 100.086 137.662, 113.792 122.858 C 123.927 111.911, 140.453 106.331, 155.025 108.935 C 162.908 110.344, 175.212 115.955, 182.259 121.354 C 187.767 125.574, 188 125.644, 188 123.077 C 188 120.948, 180.314 114.007, 172.500 109.081 C 161.806 102.338, 145.195 100.087, 132 103.593 M 485.967 112.167 C 493.844 122.542, 499.087 132.478, 501.710 142 C 504.532 152.247, 504.235 178.789, 501.179 189.500 C 491.743 222.565, 467.845 239.835, 422 246.722 C 412.806 248.104, 404.034 248.433, 378.250 248.365 L 346 248.280 346 300.155 L 346 352.031 360.108 368.265 L 374.217 384.500 320.542 385 L 266.868 385.500 269.747 388.258 L 272.627 391.016 330.385 390.758 L 388.143 390.500 370.071 369.194 L 352 347.889 352 301.444 L 352 255 373.446 255 C 449.218 255, 484.393 241.646, 501.977 206.205 C 507.510 195.053, 509.456 184.627, 509.387 166.500 C 509.337 153.385, 508.937 149.058, 507.169 142.500 C 504.363 132.095, 498.195 119.639, 492.829 113.544 C 488.640 108.784, 481.522 103, 479.854 103 C 479.388 103, 482.139 107.125, 485.967 112.167 M 254.181 292.250 C 251.956 314.658, 246.734 333.058, 238.804 346.434 C 233.922 354.668, 220.952 368.495, 212.344 374.644 C 204.321 380.375, 191.006 386.569, 181.460 389.010 C 150.905 396.825, 113.063 391.854, 87.051 376.609 C 78.946 371.859, 79.183 374.345, 87.342 379.671 C 101.402 388.850, 116.616 394.809, 132.977 397.545 C 146.562 399.816, 170.542 399.112, 182.732 396.084 C 226.144 385.299, 251.278 355.499, 259.976 304.500 C 261.008 298.450, 261.978 291.028, 262.130 288.007 C 262.382 283.043, 262.172 282.394, 259.954 281.271 C 258.604 280.588, 257.027 280.023, 256.448 280.015 C 255.835 280.006, 254.891 285.099, 254.181 292.250" stroke="none" fill="black" fill-rule="evenodd"/>
</svg>